<?xml version="1.0" encoding="UTF-8"?>
<svg width="24px" height="22px" viewBox="0 0 24 22" version="1.1" xmlns="http://www.w3.org/2000/svg" xmlns:xlink="http://www.w3.org/1999/xlink">
    <title>Group 4</title>
    <g id="updated" stroke="none" stroke-width="1" fill="none" fill-rule="evenodd">
        <g id="Integrated-Fulfilment" transform="translate(-659.000000, -1199.000000)" fill-rule="nonzero" stroke-width="1.5">
            <g id="Group-16" transform="translate(0.000000, 904.000000)">
                <g id="Group-4" transform="translate(660.000000, 296.000000)">
                    <g id="Group-2" fill="#F2FCFE" stroke="#00D2F6">
                        <path d="M11.9880339,-0.533787047 L19.6786328,3.76495766 C20.393164,4.16435271 20.8333333,4.9024652 20.8333333,5.70125529 L20.8333333,14.2987447 C20.8333333,15.0975348 20.393164,15.8356473 19.6786328,16.2350423 L11.9880339,20.533787 C11.2735027,20.9331821 10.393164,20.9331821 9.67863279,20.533787 L1.98803387,16.2350423 C1.27350269,15.8356473 0.833333333,15.0975348 0.833333333,14.2987447 L0.833333333,5.70125529 C0.833333333,4.9024652 1.27350269,4.16435271 1.98803387,3.76495766 L9.67863279,-0.533787047 C10.393164,-0.933182095 11.2735027,-0.933182095 11.9880339,-0.533787047 Z" id="Mask-Copy-2" transform="translate(10.833333, 10.000000) rotate(90.000000) translate(-10.833333, -10.000000) "></path>
                    </g>
                    <path d="M20.215473,0.922544486 C20.6120719,0.885744046 21.0267725,1.01637129 21.3565707,1.3522204 C21.6349348,1.6359264 21.7994272,2.02310481 21.8259746,2.42693713 C21.8533967,2.84407277 21.732938,3.27138821 21.47146,3.60442974 L21.47146,3.60442974 L11.9610176,13.3030865 C11.5677106,13.8007213 10.9836448,13.9548787 10.4831419,13.8220243 L10.4831419,13.8220243 L6.10224618,9.60304213 C5.81447798,9.34077318 5.63054482,8.96780191 5.5823175,8.56674815 C5.5352907,8.17567785 5.61860408,7.76528267 5.8319972,7.42718271 C6.08049099,7.03344497 6.44861565,6.811445 6.82666982,6.74728829 C7.23561955,6.67788853 7.67175427,6.78739951 8.02488738,7.11670691 L8.02488738,7.11670691 L10.7358165,9.97369556 L19.2141597,1.48033304 C19.4851343,1.13558329 19.8498914,0.956466843 20.215473,0.922544486 Z" id="Path" stroke="#F2FCFE" fill="#00D2F6"></path>
                </g>
            </g>
        </g>
    </g>
</svg>