<svg
                                viewBox="0 0 26 40"
                                version="1.1"
                                xmlns="http://www.w3.org/2000/svg"
                                xmlns:xlink="http://www.w3.org/1999/xlink"
                                className="w-4 h-4 mr-1 text-gray-600">
                                <defs>
                                    <polygon
                                        id="path-1"
                                        points="0 0 25.0440363 0 25.0440363 33.9040042 0 33.9040042"></polygon>
                                </defs>
                                <g id="Updates" stroke="none" stroke-width="1" fill="none" fill-rule="evenodd">
                                    <g transform="translate(-137.000000, -2085.000000)" id="Group-30">
                                        <g transform="translate(137.000000, 2085.001967)">
                                            <g id="Group-3">
                                                <mask id="mask-2" fill="white">
                                                    <use xlink:href="#path-1"></use>
                                                </mask>
                                                <g id="Clip-2"></g>
                                                <path
                                                    d="M12.5217999,16.4510144 C9.81086774,16.4510144 7.61614773,14.3457857 7.61614773,11.7898264 C7.61614773,9.23386701 9.81086774,7.12863831 12.5217999,7.12863831 C15.232732,7.12863831 17.427452,9.23386701 17.427452,11.7898264 C17.427452,14.3457857 15.232732,16.4510144 12.5217999,16.4510144 L12.5217999,16.4510144 Z M12.5217999,0.000982221786 C5.60804985,0.000982221786 -0.000436543016,5.33117245 -0.000436543016,11.9000535 C0.0028375296,12.3944384 0.0388523284,12.887732 0.108699211,13.3777516 C1.1782296,22.6695697 11.7087385,33.3779699 11.7087385,33.3779699 C11.8637113,33.549313 12.0481507,33.6911895 12.2522346,33.7981425 L12.601469,33.9040042 L12.9517947,33.7981425 C13.1547872,33.6890068 13.3381353,33.5471303 13.4941994,33.3779699 C13.4941994,33.3779699 23.8904714,22.6488339 24.939266,13.3559244 C25.0058388,12.872453 25.0407622,12.3835249 25.0440363,11.895688 C25.0440363,5.33117245 19.4355499,-0.000109135754 12.5228912,-0.000109135754 L12.5217999,0.000982221786 Z"
                                                    id="Fill-1"
                                                    fill="currentColor"
                                                    mask="url(#mask-2)"></path>
                                            </g>
                                            <path
                                                d="M19.2970566,37.9668009 C19.2970566,39.0898078 16.3482085,40 12.7118052,40 C9.07431053,40 6.12655382,39.0898078 6.12655382,37.9668009 C6.12655382,36.843794 9.07431053,35.9325104 12.7118052,35.9325104 C16.3482085,35.9325104 19.2970566,36.843794 19.2970566,37.9668009"
                                                id="Fill-4"
                                                fill="currentColor"></path>
                                        </g>
                                    </g>
                                </g>
                            </svg>